PathFileType	3	(X/Y/Z)	D:\minhoCalibration\240510\subject2_KPNP\preferred\preferred17.trc
DataRate	CameraRate	NumFrames	NumMarkers	Units	OrigDataRate	OrigDataStartFrame	OrigNumFrames
200.0	200.0	30	10	mm	200.0	340	194	
Frame#	Time	Left_Ankle_Outer1			Left_Ankle_Inner1			Left_Knee_Outer1			Left_Knee_Inner1			Left_Wrist1			Right_Wrist1			Right_Knee_Inner1			Right_Knee_Outer1			Right_Ankle_Inner1			Right_Ankle_Outer1			
		X1	Y1	Z1	X2	Y2	Z2	X3	Y3	Z3	X4	Y4	Z4	X5	Y5	Z5	X6	Y6	Z6	X7	Y7	Z7	X8	Y8	Z8	X9	Y9	Z9	X10	Y10	Z10	
340	1.69	-619.18433	86.167946	-730.08459	-637.28546	88.542671	-675.48663	-454.74866	511.27393	-705.14185	-533.61133	493.40921	-638.46423	-580.79108	925.49872	-827.19958	-915.79187	956.71973	-880.88721	-964.82458	451.38739	-911.65009	-1030.3246	501.79147	-961.19055	-958.83612	120.53153	-1148.8796	-1041.662	151.02979	-1199.0082
341	1.695	-617.54205	86.458412	-730.2713	-636.09753	89.148811	-675.86163	-451.72836	512.33472	-701.27997	-531.81726	494.1459	-636.91376	-576.86041	925.92474	-825.81366	-912.49493	957.48206	-874.47363	-967.63666	452.74606	-902.60309	-1032.3811	503.60477	-950.93884	-959.00586	125.25771	-1145.1053	-1041.7889	156.3322	-1194.6837
342	1.7	-615.88324	86.897095	-730.63184	-634.97644	89.496826	-676.46075	-449.20026	513.38824	-698.08362	-529.85333	495.01624	-635.65186	-572.06482	926.93542	-824.89319	-908.9079	958.32867	-867.23145	-969.91229	453.97537	-891.2572	-1035.1049	505.81711	-938.56976	-959.87396	131.42032	-1139.637	-1041.9744	162.61324	-1189.9077
343	1.705	-614.64343	87.033081	-731.17432	-634.21503	89.862183	-677.1109	-446.87698	514.23962	-695.81433	-527.79791	495.95651	-634.5769	-568.36676	928.13953	-823.16663	-905.30176	959.70764	-860.90344	-972.26801	454.98782	-878.56067	-1037.495	507.94345	-926.13348	-960.33038	136.88899	-1134.662	-1041.6053	170.36314	-1184.6877
344	1.71	-613.84711	86.967934	-731.8656	-633.83563	89.927834	-677.85773	-444.90192	514.71564	-694.68945	-525.46057	496.73193	-633.81567	-563.09149	930.04102	-822.15247	-900.99579	961.44958	-854.03491	-974.90088	456.40881	-865.85944	-1039.9651	510.83142	-912.2478	-961.37885	143.86697	-1127.7375	-1042.8595	176.80005	-1177.4323
345	1.715	-613.42621	86.629707	-732.71985	-633.0929	89.771904	-679.27112	-443.04645	514.771	-694.35205	-522.91302	497.32202	-633.39856	-557.935	932.19275	-820.54401	-896.53052	963.30914	-846.99255	-978.08588	459.03845	-852.55273	-1042.7454	513.56598	-897.26483	-962.08258	150.70802	-1120.729	-1042.7944	185.911	-1170.1359
346	1.72	-613.10504	86.082085	-733.52167	-633.0943	89.672905	-679.6568	-441.23254	514.34406	-695.01276	-520.30817	497.42169	-633.40686	-552.94275	934.5022	-819.14691	-891.76019	965.35339	-839.99622	-980.12543	461.35074	-837.93701	-1044.6796	516.25446	-882.20172	-963.36163	157.51392	-1112.4011	-1043.8357	194.54697	-1161.5747
347	1.725	-613.0036	85.668427	-734.02557	-633.58942	89.922371	-679.02063	-439.20978	513.56238	-696.24359	-517.67096	496.92059	-633.86914	-547.83521	936.98438	-817.75031	-886.85699	967.68695	-833.15149	-981.28143	463.73889	-822.55688	-1045.5613	520.60205	-866.67688	-965.6178	165.4666	-1103.033	-1045.2556	203.42451	-1152.1504
348	1.73	-613.04541	85.467606	-734.35339	-633.47479	89.869461	-679.24945	-437.19775	512.32886	-697.99713	-515.03864	495.82861	-634.72223	-542.80627	939.52319	-816.24072	-881.8974	970.19366	-826.46149	-981.76733	466.71585	-806.90094	-1046.7401	523.90253	-849.99091	-966.99915	173.20842	-1094.0363	-1045.9309	213.65445	-1141.8677
349	1.735	-612.91663	85.369949	-734.55188	-632.62988	89.273651	-680.78284	-435.04913	510.98697	-700.03522	-512.46399	494.55002	-635.72552	-538.08441	941.69995	-815.64874	-876.93524	972.79572	-819.87769	-982.67133	471.83246	-788.66272	-1046.682	528.8562	-832.50769	-967.97717	182.14482	-1084.217	-1047.1636	224.20099	-1130.9133
350	1.74	-612.72021	85.367897	-734.8526	-632.21588	89.331528	-681.10217	-433.04425	509.61722	-702.09644	-509.87817	493.29654	-636.88531	-533.03766	944.32135	-813.5683	-872.01105	975.65253	-813.45032	-982.12213	476.30679	-770.83978	-1046.2133	533.23267	-814.21826	-969.19122	192.25282	-1073.3942	-1048.4819	235.28506	-1119.4995
351	1.745	-612.33972	85.333488	-735.18805	-631.57935	89.222641	-681.56647	-431.27377	508.25513	-704.11578	-507.30789	492.2319	-638.24939	-528.35907	946.73523	-812.43011	-867.00421	978.60083	-807.09052	-980.67474	481.09711	-752.7774	-1045.0022	538.02246	-795.76361	-970.04004	201.46916	-1063.2266	-1048.7007	246.75146	-1107.2828
352	1.75	-612.00873	85.247833	-735.62048	-631.42987	89.845421	-681.50214	-429.44702	507.18457	-706.11328	-504.84967	491.45404	-639.90771	-523.66309	948.96344	-811.64117	-862.19971	981.77405	-800.76715	-978.54346	486.24246	-734.46906	-1042.7859	543.49011	-777.367	-970.72418	212.01773	-1051.937	-1049.2726	258.70093	-1094.8146
353	1.755	-611.76849	85.199043	-736.17877	-631.33954	89.633148	-682.34344	-427.35565	506.59079	-708.16907	-502.56097	490.98987	-641.78851	-518.99725	951.26184	-810.97876	-857.22931	985.0213	-794.28455	-975.20465	491.20621	-715.50513	-1040.1349	548.72864	-758.52618	-970.45868	223.49565	-1040.6615	-1049.177	271.29147	-1081.5762
354	1.76	-611.37115	84.920158	-736.42114	-631.61108	90.519409	-681.36218	-425.86246	505.84363	-710.50244	-500.37979	490.83701	-643.90997	-514.50446	953.534	-810.54395	-852.4212	988.42786	-787.81873	-971.48737	496.39392	-697.37494	-1036.569	554.57941	-739.93646	-969.11096	236.00075	-1029.4409	-1048.9604	284.58829	-1068.423
355	1.765	-611.4397	85.043823	-737.45148	-631.31323	90.724403	-682.1366	-424.57983	505.28323	-713.19116	-498.2569	490.86078	-646.21075	-510.08926	955.89832	-810.40253	-847.37842	991.84119	-781.0293	-967.53967	502.35324	-678.63147	-1033.4645	560.02271	-719.89215	-967.1311	249.88506	-1018.3058	-1047.9955	298.36209	-1054.9114
356	1.77	-611.34979	84.905884	-738.11096	-629.81451	90.38475	-684.90808	-423.50555	504.74405	-716.52759	-496.16687	490.97183	-648.75806	-505.43076	958.40057	-810.75757	-842.362	995.43329	-773.97754	-962.31671	507.55197	-659.97882	-1029.558	566.57758	-700.37433	-964.4292	264.68198	-1006.8423	-1046.328	312.84171	-1041.3707
357	1.775	-611.26147	84.890221	-738.83453	-630.0318	90.731209	-684.95148	-422.9993	504.20712	-720.29553	-494.04535	491.19699	-651.43274	-501.04272	960.67365	-811.31311	-837.06244	999.05499	-766.54181	-957.47119	513.94885	-641.461	-1025.8868	572.48773	-679.74634	-960.66669	280.0556	-994.69769	-1043.3718	327.90088	-1027.5688
358	1.78	-611.16016	84.825577	-739.46063	-629.67407	91.062805	-685.53058	-422.93893	503.67355	-724.52582	-492.02972	491.43228	-654.15863	-496.70517	962.89496	-812.23389	-831.82434	1002.8392	-758.88092	-951.44171	519.78906	-623.43726	-1020.7373	578.87378	-659.94293	-956.23578	295.60352	-982.28491	-1039.5891	343.72745	-1013.7122
359	1.785	-610.99652	84.710297	-740.28644	-628.91638	91.780502	-685.95099	-423.16132	503.37219	-728.98065	-490.11206	491.67502	-656.88562	-492.37543	964.92712	-813.69434	-826.24396	1006.6962	-750.70618	-944.97443	525.92401	-605.24951	-1015.9691	586.47015	-637.9646	-950.94934	311.5827	-969.52484	-1034.7338	359.84143	-999.12781
360	1.79	-610.96832	84.796745	-741.09894	-628.88873	91.681412	-686.95874	-423.77618	503.05151	-733.5011	-488.30249	491.92584	-659.67804	-488.74612	966.59357	-815.50165	-820.36945	1010.7463	-742.37299	-937.60095	531.96027	-587.2226	-1010.2047	593.83374	-616.67603	-945.43475	327.7442	-956.47906	-1029.4927	376.39822	-984.33795
361	1.795	-610.8996	84.742012	-741.86188	-628.46448	92.06221	-687.66425	-424.38837	503.08841	-737.98499	-486.70142	492.16748	-662.49121	-485.45062	968.10718	-817.7406	-814.21552	1014.9719	-733.70465	-930.27448	538.87555	-569.23694	-1003.4888	601.40356	-596.3606	-939.61664	344.38467	-943.33929	-1024.1566	393.42725	-969.2309
362	1.8	-610.60718	84.574181	-742.2959	-627.68054	92.038063	-689.55713	-425.1564	503.25388	-742.23999	-485.36444	492.36691	-665.24957	-481.60562	970.22717	-820.20868	-807.71844	1019.3121	-725.03986	-922.0105	545.83575	-551.13251	-995.98273	609.65161	-575.66003	-933.93268	361.25256	-929.68408	-1018.7792	410.80386	-953.66534
363	1.805	-610.80908	84.870537	-743.41187	-627.67633	93.424973	-688.60529	-426.12061	503.5271	-746.20612	-484.336	492.56961	-667.88666	-478.5423	971.66071	-823.19849	-800.33026	1023.653	-716.07605	-913.35376	553.14282	-532.81738	-987.94104	618.32666	-554.64368	-928.6181	378.3497	-915.68793	-1013.5891	428.63602	-937.89984
364	1.81	-610.86041	84.963638	-744.14966	-627.60754	93.292656	-689.71375	-427.14166	503.90106	-749.85291	-483.50897	492.78967	-670.53619	-475.71741	973.05225	-826.56439	-793.10443	1028.0925	-707.32135	-904.43158	561.11444	-514.30127	-978.56732	627.8949	-534.18909	-923.5564	395.86804	-901.46503	-1009.2592	446.30759	-920.63672
365	1.815	-610.93353	85.083588	-744.80615	-627.22369	94.401367	-689.53583	-427.95624	504.45676	-753.3252	-482.92929	492.98398	-673.10516	-473.33386	974.30048	-830.11627	-785.59784	1032.6237	-698.65308	-894.06848	569.13428	-496.04117	-968.11664	637.44263	-513.96448	-918.57916	413.5134	-886.63654	-1004.2792	464.08972	-904.07312
366	1.82	-610.95227	85.068718	-744.97443	-626.70306	93.889236	-691.38959	-428.67319	505.06271	-756.53796	-482.53989	493.30475	-675.48975	-470.81662	975.39081	-834.48663	-777.74341	1037.1901	-690.19897	-883.4931	577.95575	-477.60455	-957.35797	647.48169	-493.0697	-913.60797	431.5192	-871.27844	-999.62439	482.03076	-886.48218
367	1.825	-611.38824	85.457016	-745.69855	-626.80707	94.550308	-691.15717	-429.5939	505.55588	-759.57886	-482.31689	493.64517	-677.91797	-469.97308	976.10425	-838.13855	-769.69287	1041.8517	-682.01385	-872.13782	587.03094	-459.05499	-946.24213	656.91309	-474.064	-909.10144	449.15326	-855.28973	-996.4884	500.3085	-867.44409
368	1.83	-611.64093	85.667702	-746.02228	-626.26428	95.510315	-690.89539	-430.38113	506.03067	-762.56329	-482.14517	494.09082	-680.17676	-468.88806	977.0329	-842.13177	-761.36871	1046.52	-674.1535	-860.23981	596.70367	-440.18011	-933.86249	667.17841	-453.84851	-904.63342	467.21866	-839.29205	-991.5321	518.63342	-848.91382
369	1.835	-611.87964	85.936577	-746.29071	-626.72705	96.056671	-689.9671	-431.01501	506.4581	-765.62714	-481.96832	494.62393	-682.49146	-468.21194	977.77295	-846.20032	-752.9317	1051.2662	-666.65686	-847.72327	606.59973	-422.30783	-921.79572	678.43134	-432.48651	-899.72528	484.78897	-823.22833	-985.99243	537.21844	-831.32428
